<svg xmlns="http://www.w3.org/2000/svg" width="400" height="400"><g fill-rule="evenodd"><path fill="#10bd37" d="M188.565 61.159c-.679.172-1.446.444-1.704.604-.259.159-2.943.544-5.965.856-8.913.918-9.847 1.076-10.896 1.843-.55.402-2.08.928-3.4 1.169s-3.031.769-3.803 1.174c-.771.406-3.313 1.003-5.647 1.329-2.335.325-4.802.879-5.482 1.231s-2.54.914-4.134 1.249c-1.593.335-3.188.873-3.544 1.195-.357.323-1.507.845-2.557 1.161s-2.216.852-2.591 1.192-1.454.889-2.398 1.223c-.944.333-2.254 1.057-2.911 1.61S132.165 78 131.952 78s-1.414 1.011-2.669 2.246-3.048 2.579-3.983 2.986-1.7.905-1.7 1.108-.675.688-1.5 1.077c-.825.39-1.732 1.035-2.014 1.434-.283.399-1.273.945-2.2 1.213s-2.186.896-2.798 1.396c-.611.499-1.73 1.024-2.485 1.166-.994.186-1.594.632-2.175 1.616-.44.747-.965 1.358-1.166 1.358s-.577.513-.837 1.14c-.592 1.428-12.705 13.467-13.925 13.839-.495.151-.9.449-.9.661s-.611.748-1.358 1.188c-.984.581-1.43 1.181-1.616 2.175-.142.755-.667 1.874-1.166 2.485-.5.612-1.128 1.87-1.396 2.798s-.814 1.917-1.213 2.2c-.399.282-1.044 1.189-1.434 2.014s-.874 1.5-1.077 1.5-.701.765-1.108 1.7-1.75 2.727-2.986 3.983c-1.235 1.255-2.246 2.456-2.246 2.669s-.452.924-1.005 1.581-1.277 1.967-1.61 2.911-.884 2.023-1.223 2.398-.876 1.541-1.192 2.591-.838 2.2-1.161 2.557c-.322.356-.86 1.951-1.195 3.544-.335 1.594-.897 3.454-1.249 4.134s-.906 3.147-1.231 5.482c-.326 2.334-.923 4.876-1.329 5.647-.405.772-.933 2.483-1.174 3.803s-.767 2.85-1.169 3.4c-.767 1.049-.925 1.985-1.841 10.873-.31 3.01-.802 5.89-1.092 6.4-.865 1.517-.747 23.012.142 25.927.369 1.21.785 3.73.923 5.6.38 5.152.941 8.248 1.793 9.903.424.824.971 2.757 1.217 4.297.245 1.54.787 3.441 1.204 4.223.416.783.973 3.123 1.236 5.2.279 2.203.792 4.306 1.231 5.045.413.698 1.012 2.75 1.33 4.56s.853 3.594 1.189 3.965c.335.371.879 1.582 1.209 2.693s.859 2.234 1.176 2.497c.318.263.857 1.32 1.198 2.349.405 1.217 1.329 2.568 2.647 3.869 1.114 1.099 2.287 2.584 2.606 3.299s.768 1.3.997 1.3c.23 0 .855.99 1.39 2.2s1.135 2.2 1.332 2.2.679.675 1.068 1.5c.39.825 1.035 1.732 1.434 2.014.399.283.945 1.273 1.213 2.2s.904 2.195 1.412 2.817.924 1.289.924 1.482 3.943 4.241 8.762 8.995 8.973 9.127 9.23 9.718c.489 1.122 4.655 4.074 5.749 4.074.347 0 1.222.515 1.945 1.145.723.629 1.908 1.448 2.635 1.82s1.412.915 1.523 1.206c.112.291.913.849 1.78 1.24s1.576.87 1.576 1.064.765.686 1.7 1.093 2.727 1.75 3.983 2.986c1.255 1.235 2.408 2.246 2.562 2.246s.879.457 1.611 1.015c.732.559 2.09 1.284 3.018 1.611s1.968.85 2.312 1.161c.711.644 3.606 1.389 5.454 1.403.683.006 2.034.432 3.004.947.969.516 2.471 1.071 3.337 1.233s2.395.706 3.397 1.208c1.002.501 3.082 1.139 4.622 1.416 1.54.278 3.43.827 4.2 1.221s2.48.913 3.8 1.154 2.85.761 3.4 1.155c1.023.734 5.368 1.46 11.4 1.905 1.76.13 4.421.598 5.914 1.041 3.494 1.037 23.247.911 26.086-.166.88-.334 3.31-.728 5.4-.875 5.098-.359 8.255-.939 10.019-1.839.805-.41 2.704-.95 4.222-1.199 1.517-.25 3.479-.796 4.359-1.216s3.011-1.034 4.736-1.367 3.628-.955 4.229-1.383c.6-.427 1.979-.998 3.063-1.267s2.345-.729 2.8-1.023c.456-.293 2.346-.73 4.2-.971 2.28-.297 3.825-.736 4.772-1.358.77-.506 2.03-1.119 2.8-1.361.77-.243 2.3-1.353 3.4-2.468s2.585-2.288 3.3-2.607 1.3-.761 1.3-.98c0-.22.945-.849 2.1-1.397a24.6 24.6 0 0 0 6.007-3.996c.609-.548 1.267-.997 1.462-.997s1.109-.63 2.031-1.4 1.897-1.4 2.168-1.4.915-.45 1.432-1 1.135-1 1.373-1c.562 0 18.627-18.071 18.627-18.633 0-.235.45-.85 1-1.367s1-1.161 1-1.432.63-1.246 1.4-2.168 1.4-1.836 1.4-2.031.449-.853.997-1.462a24.6 24.6 0 0 0 3.996-6.007c.548-1.155 1.177-2.1 1.397-2.1s.661-.585.98-1.3 1.493-2.2 2.607-3.3 2.225-2.63 2.468-3.4.855-2.03 1.361-2.8c.622-.947 1.061-2.492 1.358-4.772.241-1.854.678-3.744.971-4.2.294-.455.754-1.715 1.023-2.8s.84-2.463 1.267-3.063c.428-.601 1.05-2.504 1.383-4.229s.948-3.856 1.367-4.736.966-2.842 1.216-4.359c.249-1.518.789-3.417 1.199-4.222.9-1.764 1.48-4.921 1.839-10.019.147-2.09.541-4.52.875-5.4 1.077-2.839 1.203-22.592.166-26.086-.443-1.493-.911-4.154-1.041-5.914-.445-6.032-1.171-10.377-1.905-11.4-.394-.55-.914-2.08-1.155-3.4s-.76-3.03-1.154-3.8-.943-2.66-1.221-4.2c-.277-1.54-.915-3.62-1.416-4.622-.502-1.002-1.045-2.531-1.208-3.397-.162-.866-.717-2.368-1.233-3.337-.515-.97-.941-2.321-.947-3.004-.014-1.848-.759-4.743-1.403-5.454-.311-.344-.834-1.385-1.161-2.312-.327-.928-1.052-2.286-1.611-3.018S322 131.999 322 131.845s-1.011-1.307-2.246-2.562c-1.236-1.256-2.579-3.048-2.986-3.983s-.899-1.7-1.093-1.7-.673-.709-1.064-1.576-.949-1.668-1.24-1.78c-.291-.111-.834-.797-1.206-1.523-.372-.727-1.191-1.912-1.82-2.635-.63-.723-1.145-1.598-1.145-1.945 0-1.094-2.952-5.26-4.074-5.749-.591-.257-4.964-4.411-9.718-9.23s-8.802-8.762-8.995-8.762-.86-.416-1.482-.924-1.889-1.144-2.817-1.412c-.927-.268-1.917-.814-2.2-1.213-.282-.399-1.189-1.044-2.014-1.434s-1.5-.87-1.5-1.068c0-.197-.99-.797-2.2-1.332s-2.2-1.16-2.2-1.39-.585-.678-1.3-.997-2.2-1.492-3.299-2.606c-1.301-1.318-2.652-2.242-3.869-2.647-1.029-.341-2.086-.88-2.349-1.198s-1.387-.846-2.497-1.176c-1.111-.33-2.322-.874-2.693-1.209s-2.155-.871-3.965-1.189-3.862-.917-4.56-1.33c-.739-.439-2.842-.952-5.045-1.231-2.077-.263-4.417-.82-5.2-1.236-.782-.417-2.683-.959-4.223-1.204-1.54-.246-3.437-.774-4.216-1.175-1.881-.968-2.793-1.142-9.457-1.806-3.12-.311-6.09-.802-6.6-1.09-1.061-.599-21.999-.924-24.162-.374m-1.245 49.889c2.869 1.453 2.68.282 2.68 16.645v14.769l-1.169 1.169c-1.146 1.145-1.255 1.169-5.42 1.169-3.035 0-4.59.175-5.435.613l-1.185.612.105 16.488L177 179l.865.123c1.034.148 3.267-1.842 10.845-9.661.819-.845 2.258-1.89 3.198-2.322.939-.431 2.109-1.136 2.6-1.566.49-.431 2.242-1.963 3.892-3.405 1.65-1.443 3.45-3.027 4-3.522a21 21 0 0 1 2.13-1.638c.621-.407 1.724-1.655 2.452-2.774 2.222-3.419 6.486-7.035 8.293-7.035 1.205 0 2.143-1.056 1.561-1.757-.44-.53-1.442-.643-5.711-.643-8.273 0-7.925.769-7.925-17.523V113.77l1.103-1.321c.796-.953 1.602-1.417 2.9-1.667 3.682-.711 73.478-.462 74.917.266 2.87 1.454 2.68.26 2.68 16.832v14.956l-.982.982c-.947.947-1.178.982-6.5.988-5.897.006-8.415.523-9.034 1.852-.365.783-4.585 3.423-6.284 3.931-.55.164-1.36.626-1.8 1.026s-2.158 1.974-3.818 3.498-3.417 2.985-3.906 3.246c-.488.262-1.341 1.194-1.895 2.072-2.048 3.243-5.474 6.678-7.599 7.618-.922.408-1.894 1.004-2.16 1.324s-1.356.873-2.421 1.227c-2.502.831-3.328 2.56-2 4.19.452.556 1.132 1.642 1.511 2.415.378.773 1.015 1.763 1.414 2.2.978 1.07 2.452 3.248 3.516 5.194.481.879 1.815 2.499 2.964 3.6 1.148 1.1 2.22 2.451 2.382 3.001s.636 1.595 1.053 2.323c.417.727.964 2.167 1.214 3.2.251 1.032.769 2.237 1.153 2.677s1.015 1.43 1.401 2.2 1.128 1.909 1.647 2.531.944 1.327.944 1.568c0 .24.98 1.351 2.177 2.469 2.398 2.238 3.689 3.899 5.176 6.657.542 1.004 1.269 2.061 1.616 2.349s.631.739.631 1.003.541 1.085 1.202 1.825c1.069 1.198 1.99 3.35 1.996 4.667.001.258.452 1.004 1.002 1.658s1 1.37 1 1.593.585 1.121 1.3 1.996c1.252 1.533 1.719 2.238 3.9 5.897.55.923 1.72 2.714 2.6 3.981s1.87 2.791 2.2 3.387c.33.595 1.089 1.698 1.687 2.451l1.088 1.368 6.247.2c6.244.2 6.248.201 7.213 1.322l.965 1.123v29.91l-.889.622c-.792.555-5.839.623-46.219.623h-45.33l-.981-1.058-.981-1.059v-13.47c0-18.625-.278-18.013 8.195-18.013 5.593 0 6.005-.21 4.274-2.182-.656-.747-1.314-1.911-1.462-2.586s-.488-1.363-.754-1.53c-.801-.499-3.805-5.169-4.102-6.377-.334-1.357-2.644-5.801-3.779-7.268-1.536-1.987-2.765-3.857-3.346-5.089-.319-.677-.873-1.475-1.232-1.773s-1.024-1.274-1.478-2.168-1.251-2.136-1.771-2.758-.945-1.311-.945-1.532-.652-1.198-1.448-2.17c-2.03-2.477-3.454-2.464-5.6.052-2.163 2.536-4.972 5.263-7.605 7.381-1.231.99-2.937 2.482-3.792 3.316l-1.555 1.516v11.17c0 13.12-.523 11.998 5.594 11.998 7.855 0 7.606-.571 7.606 17.46v14.482l-1.054.829c-1.107.871-74.707 1.35-76.053.495-1.073-.681-1.293-3.398-1.283-15.863.013-18.299-.561-17.123 8.504-17.403l6.486-.2.102-50.578c.068-33.866-.033-50.713-.305-50.985-.227-.227-3.244-.479-6.825-.57-8.609-.22-7.772 1.624-7.772-17.117v-14.885l.949-1.011c1.303-1.386-.566-1.319 38.371-1.39 31.482-.058 35.046 0 36.2.584"/><path fill="#94e4a4" d="M185.2 59.666c-1.87.191-4.21.544-5.2.786-3.397.829-7.401 1.547-8.632 1.548-.678 0-2.1.439-3.16.976s-3.386 1.269-5.168 1.627-3.645.913-4.141 1.234-2.821.852-5.167 1.182c-2.511.352-4.773.906-5.499 1.346-.678.411-2.21.952-3.403 1.202s-2.724.782-3.4 1.182c-.677.4-1.86.969-2.63 1.266-.77.296-2.03.935-2.8 1.42s-2.03 1.081-2.8 1.324-2.93 1.811-4.8 3.483-3.94 3.318-4.6 3.657-1.65.956-2.2 1.371c-3.495 2.635-4.909 3.541-5.89 3.774-2.95.702-8.51 4.797-8.51 6.266 0 .654-12.421 13.06-13.8 13.783-2.526 1.325-5.618 5.518-6.356 8.617-.233.981-1.139 2.395-3.774 5.89-.415.55-1.032 1.54-1.371 2.2s-1.984 2.73-3.657 4.6c-1.672 1.87-3.239 4.03-3.483 4.8-.243.77-.839 2.03-1.324 2.8s-1.124 2.03-1.42 2.8c-.297.77-.866 1.953-1.266 2.63s-.932 2.206-1.182 3.4-.791 2.725-1.202 3.403c-.44.726-.994 2.988-1.346 5.499-.33 2.346-.861 4.671-1.182 5.167s-.876 2.359-1.234 4.141-1.09 4.108-1.627 5.168-.976 2.518-.976 3.24c0 1.438-.517 4.34-1.38 7.752-1.924 7.6-1.941 34.292-.026 41.4.296 1.1.849 3.8 1.227 6s1.002 4.63 1.384 5.4.999 2.917 1.371 4.771c.373 1.855.946 3.891 1.274 4.526s.838 2.641 1.132 4.459.894 4.102 1.332 5.075.924 2.579 1.079 3.569c.262 1.673 2.258 6.494 3.644 8.8.33.55.933 1.72 1.339 2.6s1.632 2.503 2.725 3.606c1.093 1.104 2.378 2.724 2.857 3.6a54 54 0 0 0 1.956 3.241c.597.905 1.603 2.435 2.235 3.4.633.964 1.47 2.113 1.862 2.553s.892 1.464 1.112 2.276c.583 2.154 1.693 3.446 11.383 13.248 4.826 4.882 9.518 9.63 10.427 10.552 1.06 1.075 2.244 1.825 3.304 2.092.908.228 1.899.714 2.201 1.078s1.183 1.087 1.956 1.605 2.396 1.655 3.606 2.527 2.83 1.935 3.6 2.362c.77.426 2.93 2.144 4.8 3.817 1.87 1.672 4.03 3.24 4.8 3.484s2.059.866 2.865 1.383c.806.518 2.786 1.297 4.4 1.733 7.359 1.985 9.833 2.771 11.135 3.54.77.455 2.21.952 3.2 1.105s2.584.618 3.543 1.034 3.19 1.05 4.959 1.409c1.768.358 3.817 1.006 4.552 1.44.736.434 2.632.951 4.215 1.15s4.42.713 6.305 1.143c7.304 1.666 28.927 2.155 38.626.873 4.408-.583 13.878-2.662 15.2-3.338.66-.338 2.666-.908 4.457-1.267s4.041-.993 5-1.41 2.514-.881 3.457-1.034c.943-.152 2.216-.699 2.829-1.215.727-.612 2.079-1.103 3.886-1.411 1.524-.26 3.384-.723 4.134-1.03.749-.307 2.524-.827 3.945-1.156 1.42-.33 3.056-.926 3.637-1.325.58-.399 1.61-.946 2.288-1.216s2.212-1.447 3.409-2.615 2.892-2.516 3.767-2.993c1.731-.945 3.711-2.218 7.044-4.531l3.147-2.185c.55-.381 1.591-1.196 2.314-1.809.723-.614 1.533-1.118 1.8-1.12 1.858-.015 23.086-21.219 23.086-23.06 0-.279.502-1.099 1.116-1.822.613-.723 1.428-1.764 1.809-2.314l2.185-3.147c2.313-3.333 3.586-5.313 4.531-7.044.477-.875 1.824-2.57 2.993-3.767s2.345-2.731 2.615-3.409.817-1.708 1.216-2.288c.399-.581.995-2.217 1.325-3.637.329-1.421.849-3.196 1.156-3.945.307-.75.77-2.61 1.03-4.134.308-1.807.799-3.159 1.411-3.886.516-.613 1.063-1.886 1.215-2.829s.618-2.498 1.034-3.457 1.051-3.209 1.41-5 .929-3.797 1.267-4.457c.676-1.322 2.755-10.792 3.338-15.2 1.282-9.699.793-31.322-.873-38.626-.43-1.885-.944-4.722-1.143-6.305s-.716-3.479-1.15-4.215-1.082-2.784-1.44-4.552c-.359-1.769-.992-4-1.409-4.959-.416-.959-.881-2.553-1.034-3.543s-.65-2.43-1.105-3.2c-.769-1.302-1.555-3.776-3.54-11.135-.436-1.614-1.215-3.594-1.733-4.4-.517-.806-1.14-2.095-1.383-2.865s-1.812-2.93-3.484-4.8c-1.673-1.87-3.391-4.03-3.817-4.8s-1.49-2.39-2.362-3.6a164 164 0 0 1-2.527-3.606c-.518-.773-1.24-1.653-1.605-1.956-.364-.302-.85-1.293-1.078-2.201-.267-1.06-1.017-2.244-2.092-3.304-.922-.909-5.67-5.601-10.552-10.427-9.802-9.69-11.094-10.8-13.248-11.383-.812-.22-1.836-.72-2.276-1.112s-1.589-1.229-2.553-1.862c-.965-.632-2.495-1.638-3.4-2.235a54 54 0 0 0-3.241-1.956c-.876-.479-2.496-1.764-3.6-2.857-1.103-1.093-2.726-2.32-3.606-2.725s-2.05-1.009-2.6-1.339c-2.306-1.386-7.127-3.382-8.8-3.644-.99-.155-2.596-.641-3.569-1.079s-3.257-1.038-5.075-1.332-3.825-.804-4.459-1.132c-.635-.328-2.671-.901-4.526-1.274-1.854-.372-4.001-.989-4.771-1.371s-3.2-1.005-5.4-1.384c-2.2-.378-4.9-.931-6-1.227-4.842-1.304-26.211-1.864-35.4-.928m30.4.924c1.21.126 3.1.483 4.2.793s3.44.776 5.2 1.033 4.288.877 5.617 1.377 3.219 1.04 4.2 1.2c.981.161 2.983.707 4.45 1.214 1.467.506 3.912 1.114 5.434 1.35 1.522.237 3.562.779 4.533 1.205s2.925.984 4.341 1.238 3.216.806 4 1.226 2.235 1.148 3.225 1.617c4.808 2.28 5.932 2.955 7.6 4.571 1.645 1.593 7.01 5.386 7.619 5.386.14 0 1.589.991 3.218 2.202s3.593 2.407 4.363 2.659c2.439.798 3.988 2.107 13.2 11.151 4.95 4.86 9.575 9.37 10.277 10.024s1.826 2.308 2.498 3.676 1.626 3.028 2.12 3.688c3.269 4.368 5.101 7.008 5.828 8.4.46.88 1.695 2.5 2.745 3.6 2.092 2.192 4.532 5.395 4.532 5.949 0 .194.558 1.451 1.241 2.794.682 1.342 1.488 3.615 1.79 5.049s1.166 4.318 1.918 6.408 1.65 4.61 1.995 5.6c.88 2.529 2.899 9.424 3.44 11.754.25 1.074.781 2.604 1.181 3.4.399.795.947 3.246 1.218 5.446.27 2.2.728 4.72 1.017 5.6 1.762 5.371 1.662 33.383-.145 40.4-.226.88-.703 3.297-1.059 5.37-.357 2.074-.907 4.272-1.224 4.885s-.851 2.426-1.186 4.029c-.336 1.604-.944 3.816-1.352 4.916s-.953 3.024-1.211 4.276-.811 2.709-1.228 3.24c-.418.53-1.137 2.374-1.599 4.097s-.91 3.248-.997 3.389c-.088.141-.42 1.507-.738 3.035-.319 1.528-1.138 3.878-1.82 5.22-.683 1.343-1.241 2.606-1.241 2.808s-.879 1.231-1.953 2.289c-1.074 1.057-2.739 3.18-3.7 4.716-1.64 2.621-3.042 4.706-6.647 9.885a124 124 0 0 0-2.3 3.417c-1.865 2.941-3.537 4.829-10.771 12.164-7.039 7.138-9.978 9.767-13.265 11.864-.69.44-2.224 1.475-3.409 2.3-5.179 3.605-7.264 5.007-9.885 6.647-1.536.961-3.659 2.626-4.716 3.7s-2.088 1.953-2.289 1.953-1.465.558-2.808 1.241c-1.342.682-3.692 1.501-5.22 1.82-1.528.318-2.894.65-3.035.738s-1.666.536-3.389.997c-1.723.462-3.567 1.181-4.097 1.599s-1.989.97-3.24 1.228-3.176.803-4.276 1.211-3.312 1.016-4.916 1.352c-1.603.335-3.417.869-4.029 1.186s-2.811.867-4.885 1.224c-2.073.356-4.49.833-5.37 1.059-7.017 1.807-35.029 1.907-40.4.145-.88-.289-3.4-.747-5.6-1.017-2.2-.271-4.651-.819-5.446-1.218-.796-.4-2.326-.931-3.4-1.181-2.33-.541-9.225-2.56-11.754-3.44-.99-.345-3.51-1.243-5.6-1.995s-4.974-1.615-6.408-1.918-3.707-1.108-5.049-1.79c-1.343-.683-2.6-1.241-2.794-1.241-.554 0-3.757-2.44-5.949-4.532-1.1-1.05-2.72-2.285-3.6-2.745-1.392-.727-4.032-2.559-8.4-5.828-.66-.494-2.32-1.448-3.688-2.12s-3.023-1.796-3.676-2.498c-.654-.702-5.164-5.327-10.024-10.277-9.044-9.212-10.353-10.761-11.151-13.2-.252-.77-1.449-2.733-2.659-4.363-1.211-1.629-2.202-3.078-2.202-3.218 0-.609-3.793-5.974-5.386-7.619-1.616-1.668-2.291-2.792-4.571-7.6a89 89 0 0 0-1.617-3.225c-.42-.784-.972-2.584-1.226-4s-.811-3.37-1.238-4.341-.968-3.011-1.205-4.533c-.236-1.522-.844-3.967-1.35-5.434s-1.053-3.469-1.214-4.45c-.16-.981-.7-2.871-1.2-4.2s-1.12-3.857-1.377-5.617-.717-4.1-1.022-5.2c-1.71-6.179-1.706-34.376.007-39.6.288-.88.746-3.4 1.016-5.6.271-2.2.829-4.671 1.241-5.491.412-.821 1.027-2.711 1.367-4.2.339-1.49.976-3.684 1.415-4.877s.98-3.608 1.201-5.368c.22-1.76.746-3.957 1.167-4.882s.957-2.559 1.189-3.631c.374-1.722 2.004-5.65 3.3-7.951.248-.44 1.036-1.995 1.75-3.456.715-1.462 2.546-4.072 4.069-5.8 1.523-1.729 3.089-3.774 3.482-4.544.392-.77 1.52-2.466 2.507-3.769.987-1.304 2.058-3.014 2.382-3.8 1.976-4.808 2.927-6.309 4.975-7.851 2.716-2.047 14.471-13.802 16.518-16.518 1.542-2.048 3.043-2.999 7.851-4.975.786-.324 2.496-1.395 3.8-2.382s2.999-2.115 3.769-2.507c.77-.393 2.815-1.959 4.544-3.482s4.338-3.354 5.8-4.069 3.016-1.502 3.456-1.75c2.301-1.296 6.229-2.926 7.951-3.3 1.072-.232 2.707-.768 3.631-1.189.925-.421 3.122-.947 4.882-1.167s4.176-.761 5.368-1.201c1.193-.439 3.387-1.076 4.877-1.415 1.489-.34 3.379-.955 4.2-1.367.82-.412 3.291-.97 5.491-1.241 2.2-.27 4.726-.745 5.613-1.054s2.418-.573 3.4-.586c.983-.013 2.507-.179 3.387-.369 1.673-.361 24.782-.215 28.6.182m-101.911 52.033-.889.622v14.301c0 17.562-.795 15.79 7.203 16.054 8.685.286 7.597-7.249 7.597 52.6 0 59.848 1.057 52.385-7.427 52.434-8.139.046-7.373-1.637-7.373 16.196 0 13.77.031 14.358.774 14.756 1.13.605 72.443.572 73.773-.035 1.422-.647 1.442-.857 1.448-15.426l.005-13.275-1.104-1.088c-1.062-1.046-1.275-1.09-5.517-1.125-3.506-.029-4.635-.183-5.496-.746l-1.083-.709v-23.815l1.557-1.383c.857-.761 3.372-2.897 5.589-4.747s4.479-4.04 5.027-4.868c2.995-4.525 7.047-4.512 9.414.031.68 1.305 2.504 4.192 4.421 7 4.261 6.238 7.712 11.908 8.154 13.395.294.993 1.371 2.975 2.392 4.405s2.24 3.41 2.71 4.4 1.353 2.408 1.963 3.152c2.371 2.892.764 4.048-5.627 4.048-7.238 0-6.6-1.526-6.6 15.781 0 11.36.107 14.225.549 14.758.701.844 88.391 1.036 90.232.197l1.019-.464v-28.533l-.996-.935c-.933-.877-1.322-.938-6.129-.97-5.983-.04-7.363-.621-9.11-3.834-.538-.99-1.602-2.61-2.365-3.6s-1.826-2.621-2.362-3.623c-.535-1.003-1.753-2.956-2.706-4.34s-2.098-3.116-2.545-3.85c-.448-.733-1.106-1.66-1.463-2.06s-.863-1.537-1.124-2.527c-.429-1.629-1.52-3.468-6.524-11-.877-1.32-2.615-3.48-3.862-4.8s-2.71-3.03-3.251-3.8c-1.778-2.529-3.963-6.31-3.965-6.86 0-.297-.54-1.62-1.198-2.94s-1.198-2.733-1.198-3.139c-.001-.406-1.137-1.936-2.524-3.4s-3.316-3.921-4.285-5.461-2.099-3.25-2.51-3.8c-4.828-6.462-4.655-7.849 1.367-10.91 4.54-2.309 6.713-4.147 9.393-7.951 1.217-1.726 2.361-3.139 2.543-3.139s1.979-1.502 3.993-3.339c3.409-3.107 4.804-4.042 9.703-6.501 1.035-.519 2.076-1.307 2.313-1.751.966-1.804 3.177-2.409 8.807-2.409 5.024 0 5.274-.039 6.216-.982l.982-.982v-27.897l-.926-.869-.926-.87h-75.609l-.869.926c-1.328 1.413-1.366 27.654-.043 29.512l.827 1.162h13.071l-.429 1.398c-.548 1.787-1.014 2.18-4.896 4.143-1.971.995-3.467 2.048-3.894 2.738-2.066 3.336-3.564 5.102-5.906 6.962-1.43 1.136-3.8 3.193-5.266 4.573-1.467 1.379-3.717 3.129-5 3.887-4.296 2.538-5.263 3.29-6.093 4.74-1.899 3.314-11.125 10.265-11.713 8.825-.59-1.445-.366-35.461.239-36.29.491-.672 1.149-.791 4.9-.887 8.406-.216 7.733 1.181 7.733-16.06v-13.971l-1.054-.829c-1.438-1.131-72.454-1.329-74.057-.206m73.431.657c.706.706.687 28.053-.02 28.631-.275.225-2.811.472-5.635.549-7.379.201-6.665-1.989-6.665 20.453 0 22.746-.095 22.516 6.73 16.252 1.469-1.348 3.34-2.926 4.158-3.508s1.885-1.797 2.37-2.702c.844-1.574 2.555-2.944 5.938-4.755 1.514-.81 5.295-3.737 5.534-4.284.072-.164 1.782-1.664 3.8-3.333 3.708-3.066 4.106-3.505 6.719-7.417 1.064-1.592 1.861-2.317 3-2.729.853-.309 2.001-.866 2.551-1.238a115 115 0 0 1 2.651-1.711c1.263-.791 1.698-1.345 1.854-2.361.389-2.525-.17-2.727-7.553-2.727-6.164 0-6.548-.045-6.962-.819-.514-.961-.389-27.473.134-28.281.462-.715 75.482-.734 76.196-.02.688.688.688 27.952 0 28.64-.323.323-2.145.48-5.574.48-5.916 0-6.584.191-8.857 2.53-.933.959-2.354 1.962-3.16 2.227-.806.266-1.69.755-1.965 1.087s-1.07.84-1.765 1.131c-1.399.584-4.141 2.609-6.012 4.439-.667.652-2.107 2.004-3.2 3.003s-2.707 2.853-3.587 4.12c-1.936 2.787-4.569 5.074-7.453 6.474-4.11 1.994-5.619 2.858-5.976 3.422-.663 1.048-.388 3.719.536 5.2.491.788 1.253 2.026 1.693 2.75s1.18 1.79 1.644 2.367c.464.578 1.165 1.68 1.559 2.45 1.285 2.513 5.317 7.2 6.196 7.2.202 0 .74 1.253 1.196 2.784s.999 2.889 1.206 3.017c.208.128.578.976.822 1.885.727 2.701 3.558 7.011 7.077 10.773 1.815 1.941 3.3 3.698 3.3 3.904 0 .207.482.949 1.072 1.649.589.701 1.354 1.766 1.7 2.368a106 106 0 0 0 3.172 5.148c.519.791 1.166 2.165 1.436 3.055.491 1.612 1.75 3.766 3.499 5.987.872 1.108 1.716 2.473 4.101 6.63.568.99 1.657 2.61 2.42 3.6s1.822 2.61 2.353 3.6c.557 1.039 1.786 2.388 2.906 3.191l1.941 1.39 4.868.034c3.385.024 5.06.194 5.5.558.959.797.959 28.216-.001 28.584-1.361.522-88.502.27-88.843-.257-.523-.808-.649-26.92-.134-27.881.405-.757.82-.821 5.524-.842 8.126-.036 9.312-1.033 6.554-5.511a192 192 0 0 1-2.068-3.454c-1.387-2.386-3.165-5.06-4-6.012-.385-.44-.917-1.73-1.182-2.867s-.828-2.38-1.25-2.762-.768-.896-.768-1.142-.515-1.073-1.143-1.838c-.629-.765-1.524-2.111-1.989-2.991s-1.574-2.59-2.464-3.8c-.891-1.21-1.876-2.754-2.189-3.432s-.865-1.477-1.226-1.777c-.362-.3-.924-1.213-1.251-2.029-.757-1.893-4.104-4.762-5.554-4.762-1.259 0-4.721 2.732-5.589 4.409-.315.609-1.883 2.165-3.484 3.456s-3.361 2.753-3.911 3.249-1.855 1.641-2.9 2.545l-1.9 1.643v12.13c0 15.671-.466 14.673 6.903 14.796 3.044.051 4.914.254 5.3.575.712.591.901 25.945.207 27.771l-.39 1.026h-35.977c-19.788 0-36.262-.109-36.61-.243-.561-.215-.633-1.843-.633-14.219v-13.977l1.292-.543c.9-.378 2.386-.486 4.9-.356 5.292.275 7.039-.138 7.907-1.868 1.033-2.059 1.09-101.254.059-103.426-.827-1.744-2.3-2.163-7.608-2.166-2.227-.001-4.612-.115-5.3-.252l-1.25-.25v-28.644l.9-.174c2.371-.456 72.156-.266 72.62.198"/><path fill="#74d48c" d="M187 60.408c-.88.19-2.404.356-3.387.369-.982.013-2.512.276-3.4.586s-3.413.784-5.613 1.054c-2.2.271-4.671.829-5.491 1.241-.821.412-2.711 1.027-4.2 1.367-1.49.339-3.684.976-4.877 1.415s-3.608.98-5.368 1.201c-1.76.22-3.957.746-4.882 1.167s-2.559.957-3.631 1.189c-1.722.374-5.65 2.004-7.951 3.3-.44.248-1.995 1.036-3.456 1.75-1.462.715-4.072 2.546-5.8 4.069-1.729 1.523-3.774 3.089-4.544 3.482-.77.392-2.466 1.52-3.769 2.507-1.304.987-3.014 2.058-3.8 2.382-4.808 1.976-6.309 2.927-7.851 4.975-2.047 2.716-13.802 14.471-16.518 16.518-2.048 1.542-2.999 3.043-4.975 7.851-.324.786-1.395 2.496-2.382 3.8s-2.115 2.999-2.507 3.769c-.393.77-1.959 2.815-3.482 4.544s-3.354 4.338-4.069 5.8-1.502 3.016-1.75 3.456c-1.296 2.301-2.926 6.229-3.3 7.951-.232 1.072-.768 2.707-1.189 3.631-.421.925-.947 3.122-1.167 4.882s-.761 4.176-1.201 5.368c-.439 1.193-1.076 3.387-1.415 4.877-.34 1.489-.955 3.379-1.367 4.2-.412.82-.97 3.291-1.241 5.491-.27 2.2-.728 4.72-1.016 5.6-1.713 5.224-1.717 33.421-.007 39.6.305 1.1.765 3.44 1.022 5.2s.877 4.288 1.377 5.617 1.04 3.219 1.2 4.2c.161.981.707 2.983 1.214 4.45.506 1.467 1.114 3.912 1.35 5.434.237 1.522.779 3.562 1.205 4.533s.984 2.925 1.238 4.341.806 3.216 1.226 4 1.148 2.235 1.617 3.225c2.28 4.808 2.955 5.932 4.571 7.6 1.593 1.645 5.386 7.01 5.386 7.619 0 .14.991 1.589 2.202 3.218s2.407 3.593 2.659 4.363c.798 2.439 2.107 3.988 11.151 13.2 4.86 4.95 9.37 9.575 10.024 10.277s2.308 1.826 3.676 2.498 3.028 1.626 3.688 2.12c4.368 3.269 7.008 5.101 8.4 5.828.88.46 2.5 1.695 3.6 2.745 2.192 2.092 5.395 4.532 5.949 4.532.194 0 1.451.558 2.794 1.241 1.342.682 3.615 1.488 5.049 1.79s4.318 1.166 6.408 1.918 4.61 1.65 5.6 1.995c2.529.88 9.424 2.899 11.754 3.44 1.074.25 2.604.781 3.4 1.181.795.399 3.246.947 5.446 1.218 2.2.27 4.72.728 5.6 1.017 5.371 1.762 33.383 1.662 40.4-.145.88-.226 3.297-.703 5.37-1.059 2.074-.357 4.272-.907 4.885-1.224s2.426-.851 4.029-1.186c1.604-.336 3.816-.944 4.916-1.352s3.024-.953 4.276-1.211 2.709-.811 3.24-1.228c.53-.418 2.374-1.137 4.097-1.599s3.248-.91 3.389-.997c.141-.088 1.507-.42 3.035-.738 1.528-.319 3.878-1.138 5.22-1.82 1.343-.683 2.606-1.241 2.808-1.241s1.231-.879 2.289-1.953c1.057-1.074 3.18-2.739 4.716-3.7 2.621-1.64 4.706-3.042 9.885-6.647 1.185-.825 2.719-1.86 3.409-2.3 3.287-2.097 6.226-4.726 13.265-11.864 7.234-7.335 8.906-9.223 10.771-12.164.44-.694 1.475-2.232 2.3-3.417 3.605-5.179 5.007-7.264 6.647-9.885.961-1.536 2.626-3.659 3.7-4.716s1.953-2.088 1.953-2.289.558-1.465 1.241-2.808c.682-1.342 1.501-3.692 1.82-5.22.318-1.528.65-2.894.738-3.035s.536-1.666.997-3.389c.462-1.723 1.181-3.567 1.599-4.097s.97-1.989 1.228-3.24.803-3.176 1.211-4.276 1.016-3.312 1.352-4.916c.335-1.603.869-3.417 1.186-4.029s.867-2.811 1.224-4.885c.356-2.073.833-4.49 1.059-5.37 1.807-7.017 1.907-35.029.145-40.4-.289-.88-.747-3.4-1.017-5.6-.271-2.2-.819-4.651-1.218-5.446-.4-.796-.931-2.326-1.181-3.4-.541-2.33-2.56-9.225-3.44-11.754-.345-.99-1.243-3.51-1.995-5.6s-1.615-4.974-1.918-6.408-1.108-3.707-1.79-5.049c-.683-1.343-1.241-2.6-1.241-2.794 0-.554-2.44-3.757-4.532-5.949-1.05-1.1-2.285-2.72-2.745-3.6-.727-1.392-2.559-4.032-5.828-8.4-.494-.66-1.448-2.32-2.12-3.688s-1.796-3.023-2.498-3.676c-.702-.654-5.327-5.164-10.277-10.024-9.212-9.044-10.761-10.353-13.2-11.151-.77-.252-2.733-1.449-4.363-2.659-1.629-1.211-3.078-2.202-3.218-2.202-.609 0-5.974-3.793-7.619-5.386-1.668-1.616-2.792-2.291-7.6-4.571a89 89 0 0 1-3.225-1.617c-.784-.42-2.584-.972-4-1.226s-3.37-.811-4.341-1.238-3.011-.968-4.533-1.205c-1.522-.236-3.967-.844-5.434-1.35s-3.469-1.053-4.45-1.214c-.981-.16-2.871-.7-4.2-1.2s-3.857-1.12-5.617-1.377-4.1-.722-5.2-1.033c-3.681-1.039-29.016-1.793-32.8-.975m25.727 1.125c.51.288 3.48.779 6.6 1.09 6.664.664 7.576.838 9.457 1.806.779.401 2.676.929 4.216 1.175 1.54.245 3.441.787 4.223 1.204.783.416 3.123.973 5.2 1.236 2.203.279 4.306.792 5.045 1.231.698.413 2.75 1.012 4.56 1.33s3.594.853 3.965 1.189c.371.335 1.582.879 2.693 1.209s2.234.859 2.497 1.176c.263.318 1.32.857 2.349 1.198 1.217.405 2.568 1.329 3.869 2.647 1.099 1.114 2.584 2.287 3.299 2.606s1.3.768 1.3.997c0 .23.99.855 2.2 1.39s2.2 1.135 2.2 1.332.675.679 1.5 1.068c.825.39 1.732 1.035 2.014 1.434.283.399 1.273.945 2.2 1.213s2.195.904 2.817 1.412 1.289.924 1.482.924 4.241 3.943 8.995 8.762 9.127 8.973 9.718 9.23c1.122.489 4.074 4.655 4.074 5.749 0 .347.515 1.222 1.145 1.945.629.723 1.448 1.908 1.82 2.635s.915 1.412 1.206 1.523c.291.112.849.913 1.24 1.78s.87 1.576 1.064 1.576.686.765 1.093 1.7 1.75 2.727 2.986 3.983c1.235 1.255 2.246 2.408 2.246 2.562s.457.879 1.015 1.611c.559.732 1.284 2.09 1.611 3.018s.85 1.968 1.161 2.312c.644.711 1.389 3.606 1.403 5.454.006.683.432 2.034.947 3.004.516.969 1.071 2.471 1.233 3.337s.706 2.395 1.208 3.397c.501 1.002 1.139 3.082 1.416 4.622.278 1.54.827 3.43 1.221 4.2s.913 2.48 1.154 3.8.761 2.85 1.155 3.4c.734 1.023 1.46 5.368 1.905 11.4.13 1.76.598 4.421 1.041 5.914 1.037 3.494.911 23.247-.166 26.086-.334.88-.728 3.31-.875 5.4-.359 5.098-.939 8.255-1.839 10.019-.41.805-.95 2.704-1.199 4.222-.25 1.517-.796 3.479-1.216 4.359s-1.034 3.011-1.367 4.736-.955 3.628-1.383 4.229c-.427.6-.998 1.979-1.267 3.063s-.729 2.345-1.023 2.8c-.293.456-.73 2.346-.971 4.2-.297 2.28-.736 3.825-1.358 4.772-.506.77-1.119 2.03-1.361 2.8-.243.77-1.353 2.3-2.468 3.4s-2.288 2.585-2.607 3.3-.761 1.3-.98 1.3c-.22 0-.849.945-1.397 2.1a24.6 24.6 0 0 1-3.996 6.007c-.548.609-.997 1.267-.997 1.462s-.63 1.109-1.4 2.031-1.4 1.897-1.4 2.168-.45.915-1 1.432-1 1.132-1 1.367c0 .562-18.065 18.633-18.627 18.633-.238 0-.856.45-1.373 1s-1.161 1-1.432 1-1.246.63-2.168 1.4-1.836 1.4-2.031 1.4-.853.449-1.462.997a24.6 24.6 0 0 1-6.007 3.996c-1.155.548-2.1 1.177-2.1 1.397s-.585.661-1.3.98-2.2 1.493-3.3 2.607-2.63 2.225-3.4 2.468-2.03.855-2.8 1.361c-.947.622-2.492 1.061-4.772 1.358-1.854.241-3.744.678-4.2.971-.455.294-1.715.754-2.8 1.023s-2.463.84-3.063 1.267c-.601.428-2.504 1.05-4.229 1.383s-3.856.948-4.736 1.367-2.842.966-4.359 1.216c-1.518.249-3.417.789-4.222 1.199-1.764.9-4.921 1.48-10.019 1.839-2.09.147-4.52.541-5.4.875-2.839 1.077-22.592 1.203-26.086.166-1.493-.443-4.154-.911-5.914-1.041-6.032-.445-10.377-1.171-11.4-1.905-.55-.394-2.08-.914-3.4-1.155s-3.03-.76-3.8-1.154-2.66-.943-4.2-1.221c-1.54-.277-3.62-.915-4.622-1.416-1.002-.502-2.531-1.045-3.397-1.208-.866-.162-2.368-.717-3.337-1.233-.97-.515-2.321-.941-3.004-.947-1.848-.014-4.743-.759-5.454-1.403-.344-.311-1.385-.834-2.312-1.161-.928-.327-2.286-1.052-3.018-1.611S131.999 322 131.845 322s-1.307-1.011-2.562-2.246c-1.256-1.236-3.048-2.579-3.983-2.986s-1.7-.899-1.7-1.093-.709-.673-1.576-1.064-1.668-.949-1.78-1.24c-.111-.291-.797-.834-1.523-1.206-.727-.372-1.912-1.191-2.635-1.82-.723-.63-1.598-1.145-1.945-1.145-1.094 0-5.26-2.952-5.749-4.074-.257-.591-4.411-4.964-9.23-9.718s-8.762-8.802-8.762-8.995-.416-.86-.924-1.482-1.144-1.889-1.412-2.817c-.268-.927-.814-1.917-1.213-2.2-.399-.282-1.044-1.189-1.434-2.014s-.87-1.5-1.068-1.5c-.197 0-.797-.99-1.332-2.2s-1.16-2.2-1.39-2.2-.678-.585-.997-1.3-1.492-2.2-2.606-3.299c-1.318-1.301-2.242-2.652-2.647-3.869-.341-1.029-.88-2.086-1.198-2.349s-.846-1.387-1.176-2.497c-.33-1.111-.874-2.322-1.209-2.693s-.871-2.155-1.189-3.965-.917-3.862-1.33-4.56c-.439-.739-.952-2.842-1.231-5.045-.263-2.077-.82-4.417-1.236-5.2-.417-.782-.959-2.683-1.204-4.223-.246-1.54-.793-3.473-1.217-4.297-.852-1.655-1.413-4.751-1.793-9.903-.138-1.87-.554-4.39-.923-5.6-.889-2.915-1.007-24.41-.142-25.927.29-.51.782-3.39 1.092-6.4.916-8.888 1.074-9.824 1.841-10.873.402-.55.928-2.08 1.169-3.4s.769-3.031 1.174-3.803c.406-.771 1.003-3.313 1.329-5.647.325-2.335.879-4.802 1.231-5.482s.914-2.54 1.249-4.134c.335-1.593.873-3.188 1.195-3.544.323-.357.845-1.507 1.161-2.557s.852-2.216 1.192-2.591.889-1.454 1.223-2.398c.333-.944 1.057-2.254 1.61-2.911S78 132.165 78 131.952s1.011-1.414 2.246-2.669 2.579-3.048 2.986-3.983.905-1.7 1.108-1.7.688-.675 1.077-1.5c.39-.825 1.035-1.732 1.434-2.014.399-.283.945-1.273 1.213-2.2s.896-2.186 1.396-2.798c.499-.611 1.024-1.73 1.166-2.485.186-.994.632-1.594 1.616-2.175.747-.44 1.358-.975 1.358-1.188s.405-.51.9-.661c1.22-.372 13.333-12.411 13.925-13.839.26-.627.636-1.14.837-1.14s.726-.611 1.166-1.358c.581-.984 1.181-1.43 2.175-1.616.755-.142 1.874-.667 2.485-1.166.612-.5 1.87-1.128 2.798-1.396s1.917-.814 2.2-1.213c.282-.399 1.189-1.044 2.014-1.434s1.5-.874 1.5-1.077.765-.701 1.7-1.108 2.727-1.75 3.983-2.986c1.255-1.235 2.456-2.246 2.669-2.246s.924-.452 1.581-1.005 1.967-1.277 2.911-1.61 2.023-.884 2.398-1.223 1.541-.876 2.591-1.192 2.2-.838 2.557-1.161c.356-.322 1.951-.86 3.544-1.195 1.594-.335 3.454-.897 4.134-1.249s3.147-.906 5.482-1.231c2.334-.326 4.876-.923 5.647-1.329.772-.405 2.483-.933 3.803-1.174s2.85-.767 3.4-1.169c1.049-.767 1.983-.925 10.896-1.843 3.022-.312 5.706-.697 5.965-.856 1.23-.761 3.748-.912 13.939-.836 8.204.061 11.236.215 11.927.606m-97.778 49.153c-.687.086-1.677.612-2.2 1.168l-.949 1.011v14.885c0 18.741-.837 16.897 7.772 17.117 3.581.091 6.598.343 6.825.57.272.272.373 17.119.305 50.985L126.6 247l-6.486.2c-9.065.28-8.491-.896-8.504 17.403-.01 12.465.21 15.182 1.283 15.863 1.346.855 74.946.376 76.053-.495l1.054-.829V264.66c0-18.031.249-17.46-7.606-17.46-6.117 0-5.594 1.122-5.594-11.998v-11.17l1.555-1.516c.855-.834 2.561-2.326 3.792-3.316 2.633-2.118 5.442-4.845 7.605-7.381 2.146-2.516 3.57-2.529 5.6-.052.796.972 1.448 1.949 1.448 2.17s.425.91.945 1.532 1.317 1.863 1.771 2.758c.454.894 1.119 1.87 1.478 2.168s.913 1.096 1.232 1.773c.581 1.232 1.81 3.102 3.346 5.089 1.135 1.467 3.445 5.911 3.779 7.268.297 1.208 3.301 5.878 4.102 6.377.266.167.606.855.754 1.53s.806 1.839 1.462 2.586c1.731 1.972 1.319 2.182-4.274 2.182-8.473 0-8.195-.612-8.195 18.013v13.47l.981 1.059.981 1.058h45.33c40.38 0 45.427-.068 46.219-.623l.889-.622v-29.91l-.965-1.123c-.965-1.121-.969-1.122-7.213-1.322l-6.247-.2-1.088-1.368c-.598-.753-1.357-1.856-1.687-2.451-.33-.596-1.32-2.12-2.2-3.387s-2.05-3.058-2.6-3.981c-2.181-3.659-2.648-4.364-3.9-5.897-.715-.875-1.3-1.774-1.3-1.996 0-.223-.45-.939-1-1.593s-1.001-1.4-1.002-1.658c-.006-1.317-.927-3.469-1.996-4.667-.661-.74-1.202-1.562-1.202-1.825 0-.264-.284-.715-.631-1.003s-1.074-1.345-1.616-2.349c-1.487-2.758-2.778-4.419-5.176-6.657-1.197-1.118-2.177-2.229-2.177-2.469 0-.241-.425-.946-.944-1.568s-1.26-1.761-1.647-2.531c-.386-.77-1.017-1.76-1.401-2.2s-.902-1.645-1.153-2.677c-.25-1.033-.797-2.473-1.214-3.2s-.891-1.773-1.053-2.323-1.234-1.901-2.382-3.001c-1.149-1.101-2.483-2.721-2.964-3.6-1.064-1.946-2.538-4.124-3.516-5.194-.399-.437-1.036-1.427-1.414-2.2-.379-.773-1.059-1.859-1.511-2.415-1.328-1.63-.502-3.359 2-4.19 1.065-.354 2.155-.906 2.421-1.227.266-.32 1.238-.916 2.16-1.324 2.125-.94 5.551-4.375 7.599-7.618.554-.878 1.407-1.81 1.895-2.072.489-.261 2.246-1.722 3.906-3.246s3.378-3.098 3.818-3.498 1.25-.862 1.8-1.026c1.699-.508 5.919-3.148 6.284-3.931.619-1.329 3.137-1.846 9.034-1.852 5.322-.006 5.553-.041 6.5-.988l.982-.982V127.88c0-16.572.19-15.378-2.68-16.832-1.439-.728-71.235-.977-74.917-.266-1.298.25-2.104.714-2.9 1.667l-1.103 1.321v13.507c0 18.292-.348 17.523 7.925 17.523 4.269 0 5.271.113 5.711.643.582.701-.356 1.757-1.561 1.757-1.807 0-6.071 3.616-8.293 7.035-.728 1.119-1.831 2.367-2.452 2.774a21 21 0 0 0-2.13 1.638c-.55.495-2.35 2.079-4 3.522s-3.402 2.974-3.892 3.405c-.491.43-1.661 1.135-2.6 1.566s-2.379 1.477-3.198 2.322c-7.578 7.819-9.811 9.809-10.845 9.661L177 179l-.104-16.487-.105-16.488 1.185-.612c.845-.438 2.4-.613 5.435-.613 4.165 0 4.274-.024 5.42-1.169l1.169-1.169v-14.769c0-16.363.189-15.192-2.68-16.645-1.202-.608-67.773-.942-72.371-.362m72.797 2.143 1.054.829v13.971c0 17.241.673 15.844-7.733 16.06-3.751.096-4.409.215-4.9.887-.605.829-.829 34.845-.239 36.29.588 1.44 9.814-5.511 11.713-8.825.83-1.45 1.797-2.202 6.093-4.74 1.283-.758 3.533-2.508 5-3.887 1.466-1.38 3.836-3.437 5.266-4.573 2.342-1.86 3.84-3.626 5.906-6.962.427-.69 1.923-1.743 3.894-2.738 3.882-1.963 4.348-2.356 4.896-4.143l.429-1.398h-13.071l-.827-1.162c-1.323-1.858-1.285-28.099.043-29.512l.869-.926h75.609l.926.87.926.869v27.897l-.982.982c-.942.943-1.192.982-6.216.982-5.63 0-7.841.605-8.807 2.409-.237.444-1.278 1.232-2.313 1.751-4.899 2.459-6.294 3.394-9.703 6.501-2.014 1.837-3.811 3.339-3.993 3.339s-1.326 1.413-2.543 3.139c-2.68 3.804-4.853 5.642-9.393 7.951-6.022 3.061-6.195 4.448-1.367 10.91.411.55 1.541 2.26 2.51 3.8s2.897 3.997 4.285 5.461c1.387 1.464 2.523 2.994 2.524 3.4s.54 1.819 1.198 3.139 1.198 2.643 1.198 2.94c.002.55 2.187 4.331 3.965 6.86.541.77 2.004 2.48 3.251 3.8s2.985 3.48 3.862 4.8c5.004 7.532 6.095 9.371 6.524 11 .261.99.767 2.127 1.124 2.527s1.015 1.327 1.463 2.06c.447.734 1.592 2.466 2.545 3.85s2.171 3.337 2.706 4.34 1.599 2.633 2.362 3.623 1.827 2.61 2.365 3.6c1.747 3.213 3.127 3.794 9.11 3.834 4.807.032 5.196.093 6.129.97l.996.935v28.533l-1.019.464c-1.841.839-89.531.647-90.232-.197-.442-.533-.549-3.398-.549-14.758 0-17.307-.638-15.781 6.6-15.781 6.391 0 7.998-1.156 5.627-4.048-.61-.744-1.494-2.162-1.963-3.152s-1.69-2.97-2.71-4.4-2.098-3.412-2.392-4.405c-.442-1.487-3.893-7.157-8.154-13.395-1.917-2.808-3.741-5.695-4.421-7-2.367-4.543-6.419-4.556-9.414-.031-.548.828-2.81 3.018-5.027 4.868s-4.732 3.986-5.589 4.747l-1.557 1.383v23.815l1.083.709c.861.563 1.99.717 5.496.746 4.242.035 4.455.079 5.517 1.125l1.104 1.088-.005 13.275c-.006 14.569-.026 14.779-1.448 15.426-1.33.607-72.643.64-73.773.035-.743-.398-.774-.986-.774-14.756 0-17.833-.766-16.15 7.373-16.196 8.484-.049 7.427 7.414 7.427-52.434s1.088-52.314-7.597-52.6c-7.998-.264-7.203 1.508-7.203-16.054v-14.301l.889-.622c1.603-1.123 72.619-.925 74.057.206"/><path fill="#fcfcfc" d="M0 200v200h400V0H0zM211.995 58.196c.484.438 2.309.686 6.89.936 5.323.29 6.449.468 7.724 1.22.889.525 2.714 1.035 4.52 1.264 2.049.26 3.488.694 4.45 1.341 1.028.692 2.171 1.011 4.133 1.155 2.029.148 3.11.461 4.292 1.243 1.056.699 2.145 1.053 3.287 1.069 2.961.041 5.493.622 6.417 1.472.602.554 1.727.915 3.457 1.109 1.922.216 2.805.528 3.521 1.244.526.526 1.711 1.126 2.635 1.333 1 .224 2.009.789 2.494 1.397.448.562 1.186 1.021 1.64 1.021.472 0 1.984 1.114 3.53 2.6 1.487 1.43 3.03 2.6 3.429 2.6s1.233.425 1.855.944a16 16 0 0 0 2.452 1.621c.726.372 1.423.944 1.548 1.271s.852.855 1.616 1.174c.763.318 1.476.918 1.584 1.333.15.571.697.812 2.264.994 1.493.174 2.289.504 2.867 1.19.44.522 1.11 1.059 1.488 1.194.379.135.792.659.919 1.166s.763 1.225 1.412 1.598c.65.373 1.181.961 1.181 1.306s.453.801 1.007 1.012 1.18.836 1.39 1.39c.211.554.666 1.007 1.012 1.007.345 0 .921.511 1.28 1.135.358.625 1.025 1.3 1.481 1.5.457.201.994.738 1.195 1.195.2.456.875 1.123 1.5 1.481.624.359 1.135.935 1.135 1.28 0 .346.453.801 1.007 1.012s1.18.836 1.39 1.39c.216.567.701 1.007 1.112 1.007 1.244 0 3.58 2.806 3.879 4.659.18 1.111.656 2.004 1.44 2.703.645.574 1.172 1.382 1.172 1.794 0 .416.359.845.805.961.443.116 1.067.835 1.385 1.598s.847 1.491 1.174 1.616.899.822 1.271 1.548a16 16 0 0 0 1.621 2.452c.519.622.944 1.481.944 1.91 0 .465.407.934 1.011 1.163.556.211 1.148.757 1.317 1.212.168.455.748 1.047 1.289 1.316.696.346 1.121 1.045 1.455 2.392.26 1.047.866 2.222 1.348 2.612.576.466.985 1.408 1.199 2.757.184 1.167.671 2.397 1.13 2.856.835.835 1.045 1.696 1.456 5.991.194 2.023.445 2.716 1.232 3.4.737.643 1.051 1.416 1.24 3.06.15 1.313.648 2.8 1.233 3.688.712 1.081 1.034 2.229 1.178 4.2.145 1.98.462 3.103 1.174 4.16.606.9 1.129 2.49 1.383 4.2.225 1.514.788 3.562 1.252 4.552.679 1.449.906 3 1.168 7.963.242 4.584.48 6.335.93 6.832.915 1.011.902 23.014-.015 24.027-.475.525-.671 2.032-.837 6.432-.191 5.035-.342 6.009-1.22 7.868-.552 1.167-1.165 3.407-1.362 4.977-.237 1.891-.681 3.334-1.316 4.278-.694 1.03-1.013 2.172-1.157 4.135-.148 2.029-.461 3.11-1.243 4.292-.575.868-1.046 2.078-1.046 2.687-.002 1.181-1.337 3.709-1.959 3.709-.204 0-.484 1.395-.622 3.1-.381 4.726-.594 5.676-1.469 6.551-.454.454-.945 1.684-1.124 2.817-.22 1.388-.644 2.313-1.371 2.987-.58.538-1.054 1.316-1.054 1.73s-1.17 1.957-2.6 3.43-2.6 3.003-2.6 3.401-.425 1.231-.944 1.853a16 16 0 0 0-1.621 2.452c-.372.726-.944 1.423-1.271 1.548s-.855.852-1.174 1.616c-.318.763-.942 1.482-1.385 1.598s-.805.54-.805.943c0 .404-.529 1.238-1.175 1.854s-1.332 1.75-1.525 2.52c-.216.863-.724 1.586-1.325 1.886-.536.267-1.073.896-1.192 1.397-.12.501-.652 1.127-1.183 1.392-.532.265-1.104.854-1.272 1.309-.169.455-.761 1.001-1.317 1.212s-1.011.667-1.011 1.013-.531.933-1.181 1.306c-.649.373-1.282 1.082-1.406 1.575-.124.494-.629.999-1.123 1.123-.493.124-1.202.757-1.575 1.406-.373.65-.961 1.181-1.306 1.181s-.802.455-1.013 1.011-.757 1.148-1.212 1.317c-.455.168-1.044.74-1.309 1.272-.265.531-.891 1.063-1.392 1.183-.501.119-1.13.656-1.397 1.192-.3.601-1.023 1.109-1.886 1.325-.77.193-1.904.879-2.52 1.525s-1.45 1.175-1.854 1.175c-.403 0-.827.362-.943.805s-.835 1.067-1.598 1.385-1.491.847-1.616 1.174-.822.899-1.548 1.271a16 16 0 0 0-2.452 1.621c-.622.519-1.456.944-1.853.944-.398 0-1.928 1.17-3.401 2.6s-3.016 2.6-3.43 2.6-1.192.474-1.73 1.054c-.674.727-1.599 1.151-2.987 1.371-1.133.179-2.363.67-2.817 1.124-.875.875-1.825 1.088-6.551 1.469-1.705.138-3.1.418-3.1.622 0 .622-2.528 1.957-3.709 1.959-.609 0-1.819.471-2.687 1.046-1.182.782-2.263 1.095-4.292 1.243-1.963.144-3.105.463-4.135 1.157-.944.635-2.387 1.079-4.278 1.316-1.57.197-3.81.81-4.977 1.362-1.859.878-2.833 1.029-7.868 1.22-4.4.166-5.907.362-6.432.837-1.013.917-23.016.93-24.027.015-.497-.45-2.248-.688-6.832-.93-4.963-.262-6.514-.489-7.963-1.168-.99-.464-3.038-1.027-4.552-1.252-1.71-.254-3.3-.777-4.2-1.383-1.057-.712-2.18-1.029-4.16-1.174-1.971-.144-3.119-.466-4.2-1.178-.888-.585-2.375-1.083-3.688-1.233-1.644-.189-2.417-.503-3.06-1.24-.684-.787-1.377-1.038-3.4-1.232-4.295-.411-5.156-.621-5.991-1.456-.459-.459-1.689-.946-2.856-1.13-1.349-.214-2.291-.623-2.757-1.199-.39-.482-1.565-1.088-2.612-1.348-1.347-.334-2.046-.759-2.392-1.455-.269-.541-.861-1.121-1.316-1.289-.455-.169-1.001-.761-1.212-1.317-.229-.604-.698-1.011-1.163-1.011-.429 0-1.288-.425-1.91-.944a16 16 0 0 0-2.452-1.621c-.726-.372-1.423-.944-1.548-1.271s-.852-.855-1.616-1.174c-.763-.318-1.482-.942-1.598-1.385-.116-.446-.545-.805-.961-.805-.412 0-1.22-.527-1.794-1.172-.699-.784-1.592-1.26-2.703-1.44-1.853-.299-4.659-2.635-4.659-3.879 0-.411-.44-.896-1.007-1.112-.554-.21-1.18-.836-1.39-1.39-.211-.554-.666-1.007-1.012-1.007-.345 0-.921-.511-1.28-1.135-.358-.625-1.025-1.3-1.481-1.5-.457-.201-.994-.738-1.195-1.195-.2-.456-.875-1.123-1.5-1.481-.624-.359-1.135-.935-1.135-1.28 0-.346-.453-.801-1.007-1.012s-1.18-.836-1.39-1.39c-.211-.554-.666-1.007-1.012-1.007-.345 0-.933-.531-1.306-1.181-.373-.649-1.092-1.285-1.598-1.412-.507-.127-1.031-.54-1.166-.919-.135-.378-.672-1.048-1.194-1.488-.686-.578-1.016-1.374-1.19-2.867-.182-1.567-.423-2.114-.994-2.264-.415-.108-1.015-.821-1.333-1.584s-.847-1.491-1.174-1.616-.899-.822-1.271-1.548a16 16 0 0 0-1.621-2.452c-.519-.622-.944-1.456-.944-1.855s-1.17-1.942-2.6-3.429c-1.486-1.546-2.6-3.058-2.6-3.53 0-.454-.459-1.192-1.021-1.64-.608-.485-1.173-1.494-1.397-2.494-.207-.924-.807-2.109-1.333-2.635-.716-.716-1.028-1.599-1.244-3.521-.194-1.73-.555-2.855-1.109-3.457-.85-.924-1.431-3.456-1.472-6.417-.016-1.142-.37-2.231-1.069-3.287-.782-1.182-1.095-2.263-1.243-4.292-.144-1.962-.463-3.105-1.155-4.133-.647-.962-1.081-2.401-1.341-4.45-.229-1.806-.739-3.631-1.264-4.52-.752-1.275-.93-2.401-1.22-7.724-.25-4.581-.498-6.406-.936-6.89-.901-.995-.886-23.012.016-24.009.459-.507.695-2.22.94-6.831.265-4.987.489-6.497 1.179-7.955.469-.99 1.026-3.035 1.237-4.544.245-1.748.74-3.272 1.365-4.2.717-1.066 1.033-2.183 1.179-4.168.144-1.972.466-3.119 1.179-4.2.782-1.186 1.031-2.21 1.23-5.05.212-3.029.395-3.718 1.223-4.6.725-.772 1.048-1.694 1.262-3.6.217-1.937.515-2.774 1.223-3.429.514-.477 1.114-1.664 1.332-2.638.244-1.087.792-2.086 1.418-2.586.562-.448 1.021-1.202 1.021-1.674 0-1.447.711-2.829 1.6-3.111.465-.148 1.012-.706 1.216-1.241s.823-1.146 1.377-1.356c.6-.229 1.007-.698 1.007-1.162 0-.429.425-1.288.944-1.91a16 16 0 0 0 1.621-2.452c.372-.726.944-1.423 1.271-1.548s.855-.852 1.174-1.616c.318-.763.92-1.476 1.337-1.585.594-.156.816-.713 1.028-2.588.221-1.955.521-2.667 1.648-3.914.757-.839 1.377-1.724 1.377-1.966 0-.565 2.106-1.662 3.19-1.662.519 0 .973-.378 1.213-1.007.21-.554.836-1.18 1.39-1.39.554-.211 1.007-.666 1.007-1.012 0-.345.511-.921 1.135-1.28.625-.358 1.3-1.025 1.5-1.481.201-.457.738-.994 1.195-1.195.456-.2 1.123-.875 1.481-1.5.359-.624.935-1.135 1.28-1.135.346 0 .801-.453 1.012-1.007s.836-1.18 1.39-1.39c.629-.24 1.007-.694 1.007-1.213 0-1.084 1.097-3.19 1.662-3.19.242 0 1.127-.62 1.966-1.377 1.247-1.127 1.959-1.427 3.914-1.648 1.875-.212 2.432-.434 2.588-1.028.109-.417.822-1.019 1.585-1.337.764-.319 1.491-.847 1.616-1.174s.822-.899 1.548-1.271a16 16 0 0 0 2.452-1.621c.622-.519 1.481-.944 1.91-.944.464 0 .933-.407 1.162-1.007.21-.554.82-1.174 1.356-1.377.535-.204 1.093-.751 1.241-1.216.282-.889 1.664-1.6 3.111-1.6.472 0 1.226-.459 1.674-1.021.5-.626 1.499-1.174 2.586-1.418.974-.218 2.161-.818 2.638-1.332.655-.708 1.492-1.006 3.429-1.223 1.906-.214 2.828-.537 3.6-1.262.882-.828 1.571-1.011 4.6-1.223 2.84-.199 3.864-.448 5.05-1.23 1.081-.713 2.228-1.035 4.2-1.179 1.985-.146 3.102-.462 4.168-1.179.928-.625 2.452-1.12 4.2-1.365 1.509-.211 3.554-.768 4.544-1.237 1.459-.691 2.969-.914 7.974-1.18 4.674-.249 6.323-.477 6.786-.94.902-.902 23.04-.916 24.035-.015m-96.3 69.304.105 13.9 5.2.098c6.79.127 6.798.13 7.997 2.495l1.003 1.98v50.534c0 34.92-.13 50.663-.422 50.955-.232.232-.727 1.033-1.1 1.78l-.678 1.358-6 .2-6 .2-.112 12.4c-.061 6.82-.013 12.805.108 13.3l.219.9H186.4v-26.8h-5.577c-7.503 0-6.823 1.506-6.823-15.109 0-15.382.37-16.891 4.137-16.891.317 0 .689-.447.826-.994.149-.594.629-1.089 1.193-1.231.519-.13 1.14-.668 1.38-1.195s.87-1.067 1.4-1.2 1.162-.678 1.405-1.211.725-.969 1.071-.969.887-.617 1.202-1.371.908-1.477 1.319-1.608c.41-.13.943-.67 1.185-1.201.827-1.816 6.531-1.797 6.799.022.067.454.626.987 1.3 1.242.784.296 1.183.725 1.183 1.272 0 .454.433 1.109.962 1.456.529.346 1.072 1.067 1.206 1.602.134.534.757 1.56 1.384 2.279s1.279 1.75 1.448 2.292.733 1.319 1.254 1.729c.586.461 1.043 1.354 1.202 2.346.186 1.165.505 1.697 1.166 1.948.5.191 1.03.761 1.178 1.269s.701 1.288 1.23 1.735c.662.558 1.107 1.555 1.43 3.2.309 1.571.857 2.837 1.605 3.702.624.723 1.135 1.625 1.135 2.005s.393.869.874 1.086 1.047.935 1.259 1.595.898 1.791 1.526 2.514c.627.723 1.141 1.595 1.141 1.939s.54 1.13 1.2 1.747c.985.92 1.2 1.439 1.2 2.898 0 2.898-.472 3.101-7.231 3.107-3.173.003-6.174.114-6.669.247l-.9.241v12.521c0 6.886.109 12.805.243 13.153.219.572 4.468.633 44 .633H294v-26.8h-5.791c-5.634 0-5.807-.025-6.405-.938-.339-.516-1.046-1.135-1.572-1.375-.578-.263-1.064-.921-1.226-1.661-.152-.691-.527-1.226-.858-1.226-.324 0-.871-.675-1.215-1.5s-1.146-2.091-1.78-2.814-1.153-1.647-1.153-2.054-.423-1.017-.939-1.356c-.558-.365-1.149-1.36-1.452-2.446-.308-1.097-.745-1.83-1.093-1.83-.319 0-.863-.72-1.209-1.6s-.865-1.6-1.154-1.6c-.698 0-1.269-1.132-1.594-3.164-.16-1.003-.557-1.821-.998-2.057-.403-.216-.957-1.154-1.231-2.086-.273-.931-1-2.17-1.614-2.753s-1.116-1.342-1.116-1.687c0-.344-.528-1.226-1.173-1.961-.645-.734-1.29-1.804-1.434-2.376s-.603-1.13-1.022-1.239-.933-.652-1.143-1.204c-.21-.553-.754-1.123-1.209-1.267-.455-.145-1.089-.768-1.409-1.386-.319-.618-.865-1.232-1.213-1.366-.348-.133-.881-.83-1.184-1.548s-.948-1.728-1.433-2.244-1.046-1.668-1.247-2.561c-.2-.893-.794-2.134-1.319-2.758-.633-.751-1.051-1.901-1.239-3.401-.24-1.922-.497-2.453-1.701-3.504-3.297-2.877-5.294-5.277-5.706-6.855-.257-.989-.75-1.765-1.269-2-.466-.21-1.02-.923-1.232-1.583s-.898-1.791-1.526-2.514c-.627-.723-1.141-1.647-1.141-2.054s-.45-1.035-1-1.395c-2.405-1.576-.901-5.877 2.278-6.513.604-.12 1.204-.552 1.333-.959.219-.691 2.34-1.558 3.825-1.563.349-.001.838-.447 1.086-.991s.9-1.102 1.45-1.24 1.111-.603 1.248-1.034c.137-.43.678-.946 1.203-1.146.539-.205 1.071-.826 1.221-1.426.327-1.302 5.25-6.44 6.356-6.633.477-.084.853-.515.932-1.068.086-.604.54-1.07 1.3-1.335.642-.224 1.168-.669 1.168-.989s.673-.862 1.497-1.206c.823-.344 1.988-1.04 2.59-1.546s1.683-1.05 2.402-1.208c1.241-.272 3.585-2.338 4.554-4.014.401-.693 1.083-.785 7.2-.966l6.757-.2.105-13.9.105-13.9h-75.195l-.219.9c-.121.495-.169 6.75-.108 13.9l.112 13 7.034.109 7.033.109 1.124 1.173c1.045 1.09 1.082 1.238.53 2.091-.327.505-.716 1.41-.864 2.012-.184.749-.614 1.18-1.363 1.367-.602.15-1.571.783-2.154 1.406-.692.739-1.464 1.133-2.218 1.133-1.307 0-4.337 2.532-4.581 3.829-.08.424-.54.944-1.021 1.156-.482.212-.98.798-1.106 1.302-.278 1.106-2.875 3.621-4.076 3.947-.474.128-.955.589-1.069 1.023s-.76.998-1.438 1.254c-.769.29-1.231.744-1.231 1.211 0 .453-.446.916-1.132 1.175-.622.235-1.297.801-1.5 1.258-.202.457-1.128 1.11-2.057 1.45-.928.341-2.06 1.019-2.515 1.507-.455.489-1.176.888-1.601.888-.448 0-1.025.484-1.369 1.149-.327.632-.946 1.241-1.376 1.354-.437.114-.841.621-.916 1.147-.079.554-.587 1.159-1.234 1.468-.605.289-1.1.795-1.1 1.124s-.617.857-1.371 1.172-1.477.908-1.608 1.319c-.13.41-.667.942-1.194 1.182s-1.071.792-1.209 1.227c-.516 1.628-5.431 2.328-6.204.884-.755-1.41-.552-39.831.215-40.597.511-.512 1.668-.629 6.2-.629h5.571v-28h-70.81z"/><path fill="#e4f4ec" d="M187.96 58.211c-.463.463-2.112.691-6.786.94-5.005.266-6.515.489-7.974 1.18-.99.469-3.035 1.026-4.544 1.237-1.748.245-3.272.74-4.2 1.365-1.066.717-2.183 1.033-4.168 1.179-1.972.144-3.119.466-4.2 1.179-1.186.782-2.21 1.031-5.05 1.23-3.029.212-3.718.395-4.6 1.223-.772.725-1.694 1.048-3.6 1.262-1.937.217-2.774.515-3.429 1.223-.477.514-1.664 1.114-2.638 1.332-1.087.244-2.086.792-2.586 1.418-.448.562-1.202 1.021-1.674 1.021-1.447 0-2.829.711-3.111 1.6-.148.465-.706 1.012-1.241 1.216s-1.146.823-1.356 1.377c-.229.6-.698 1.007-1.162 1.007-.429 0-1.288.425-1.91.944a16 16 0 0 1-2.452 1.621c-.726.372-1.423.944-1.548 1.271s-.852.855-1.616 1.174c-.763.318-1.476.92-1.585 1.337-.156.594-.713.816-2.588 1.028-1.955.221-2.667.521-3.914 1.648-.839.757-1.724 1.377-1.966 1.377-.565 0-1.662 2.106-1.662 3.19 0 .519-.378.973-1.007 1.213-.554.21-1.18.836-1.39 1.39-.211.554-.666 1.007-1.012 1.007-.345 0-.921.511-1.28 1.135-.358.625-1.025 1.3-1.481 1.5-.457.201-.994.738-1.195 1.195-.2.456-.875 1.123-1.5 1.481-.624.359-1.135.935-1.135 1.28 0 .346-.453.801-1.007 1.012s-1.18.836-1.39 1.39c-.24.629-.694 1.007-1.213 1.007-1.084 0-3.19 1.097-3.19 1.662 0 .242-.62 1.127-1.377 1.966-1.127 1.247-1.427 1.959-1.648 3.914-.212 1.875-.434 2.432-1.028 2.588-.417.109-1.019.822-1.337 1.585-.319.764-.847 1.491-1.174 1.616s-.899.822-1.271 1.548a16 16 0 0 1-1.621 2.452c-.519.622-.944 1.481-.944 1.91 0 .464-.407.933-1.007 1.162-.554.21-1.174.82-1.377 1.356-.204.535-.751 1.093-1.216 1.241-.889.282-1.6 1.664-1.6 3.111 0 .472-.459 1.226-1.021 1.674-.626.5-1.174 1.499-1.418 2.586-.218.974-.818 2.161-1.332 2.638-.708.655-1.006 1.492-1.223 3.429-.214 1.906-.537 2.828-1.262 3.6-.828.882-1.011 1.571-1.223 4.6-.199 2.84-.448 3.864-1.23 5.05-.713 1.081-1.035 2.228-1.179 4.2-.146 1.985-.462 3.102-1.179 4.168-.625.928-1.12 2.452-1.365 4.2-.211 1.509-.768 3.554-1.237 4.544-.69 1.458-.914 2.968-1.179 7.955-.245 4.611-.481 6.324-.94 6.831-.902.997-.917 23.014-.016 24.009.438.484.686 2.309.936 6.89.29 5.323.468 6.449 1.22 7.724.525.889 1.035 2.714 1.264 4.52.26 2.049.694 3.488 1.341 4.45.692 1.028 1.011 2.171 1.155 4.133.148 2.029.461 3.11 1.243 4.292.699 1.056 1.053 2.145 1.069 3.287.041 2.961.622 5.493 1.472 6.417.554.602.915 1.727 1.109 3.457.216 1.922.528 2.805 1.244 3.521.526.526 1.126 1.711 1.333 2.635.224 1 .789 2.009 1.397 2.494.562.448 1.021 1.186 1.021 1.64 0 .472 1.114 1.984 2.6 3.53 1.43 1.487 2.6 3.03 2.6 3.429s.425 1.233.944 1.855a16 16 0 0 1 1.621 2.452c.372.726.944 1.423 1.271 1.548s.855.852 1.174 1.616c.318.763.918 1.476 1.333 1.584.571.15.812.697.994 2.264.174 1.493.504 2.289 1.19 2.867.522.44 1.059 1.11 1.194 1.488.135.379.659.792 1.166.919s1.225.763 1.598 1.412c.373.65.961 1.181 1.306 1.181s.801.453 1.012 1.007.836 1.18 1.39 1.39c.554.211 1.007.666 1.007 1.012 0 .345.511.921 1.135 1.28.625.358 1.3 1.025 1.5 1.481.201.457.738.994 1.195 1.195.456.2 1.123.875 1.481 1.5.359.624.935 1.135 1.28 1.135.346 0 .801.453 1.012 1.007s.836 1.18 1.39 1.39c.567.216 1.007.701 1.007 1.112 0 1.244 2.806 3.58 4.659 3.879 1.111.18 2.004.656 2.703 1.44.574.645 1.382 1.172 1.794 1.172.416 0 .845.359.961.805.116.443.835 1.067 1.598 1.385s1.491.847 1.616 1.174.822.899 1.548 1.271a16 16 0 0 1 2.452 1.621c.622.519 1.481.944 1.91.944.465 0 .934.407 1.163 1.011.211.556.757 1.148 1.212 1.317.455.168 1.047.748 1.316 1.289.346.696 1.045 1.121 2.392 1.455 1.047.26 2.222.866 2.612 1.348.466.576 1.408.985 2.757 1.199 1.167.184 2.397.671 2.856 1.13.835.835 1.696 1.045 5.991 1.456 2.023.194 2.716.445 3.4 1.232.643.737 1.416 1.051 3.06 1.24 1.313.15 2.8.648 3.688 1.233 1.081.712 2.229 1.034 4.2 1.178 1.98.145 3.103.462 4.16 1.174.9.606 2.49 1.129 4.2 1.383 1.514.225 3.562.788 4.552 1.252 1.449.679 3 .906 7.963 1.168 4.584.242 6.335.48 6.832.93 1.011.915 23.014.902 24.027-.015.525-.475 2.032-.671 6.432-.837 5.035-.191 6.009-.342 7.868-1.22 1.167-.552 3.407-1.165 4.977-1.362 1.891-.237 3.334-.681 4.278-1.316 1.03-.694 2.172-1.013 4.135-1.157 2.029-.148 3.11-.461 4.292-1.243.868-.575 2.078-1.046 2.687-1.046 1.181-.002 3.709-1.337 3.709-1.959 0-.204 1.395-.484 3.1-.622 4.726-.381 5.676-.594 6.551-1.469.454-.454 1.684-.945 2.817-1.124 1.388-.22 2.313-.644 2.987-1.371.538-.58 1.316-1.054 1.73-1.054s1.957-1.17 3.43-2.6 3.003-2.6 3.401-2.6 1.231-.425 1.853-.944a16 16 0 0 1 2.452-1.621c.726-.372 1.423-.944 1.548-1.271s.852-.855 1.616-1.174c.763-.318 1.482-.942 1.598-1.385s.54-.805.943-.805c.404 0 1.238-.529 1.854-1.175s1.75-1.332 2.52-1.525c.863-.216 1.586-.724 1.886-1.325.267-.536.896-1.073 1.397-1.192.501-.12 1.127-.652 1.392-1.183.265-.532.854-1.104 1.309-1.272.455-.169 1.001-.761 1.212-1.317s.667-1.011 1.013-1.011.933-.531 1.306-1.181c.373-.649 1.082-1.282 1.575-1.406.494-.124.999-.629 1.123-1.123.124-.493.757-1.202 1.406-1.575.65-.373 1.181-.961 1.181-1.306s.455-.802 1.011-1.013 1.148-.757 1.317-1.212c.168-.455.74-1.044 1.272-1.309.531-.265 1.063-.891 1.183-1.392.119-.501.656-1.13 1.192-1.397.601-.3 1.109-1.023 1.325-1.886.193-.77.879-1.904 1.525-2.52s1.175-1.45 1.175-1.854c0-.403.362-.827.805-.943s1.067-.835 1.385-1.598.847-1.491 1.174-1.616.899-.822 1.271-1.548a16 16 0 0 1 1.621-2.452c.519-.622.944-1.456.944-1.853 0-.398 1.17-1.928 2.6-3.401s2.6-3.016 2.6-3.43.474-1.192 1.054-1.73c.727-.674 1.151-1.599 1.371-2.987.179-1.133.67-2.363 1.124-2.817.875-.875 1.088-1.825 1.469-6.551.138-1.705.418-3.1.622-3.1.622 0 1.957-2.528 1.959-3.709 0-.609.471-1.819 1.046-2.687.782-1.182 1.095-2.263 1.243-4.292.144-1.963.463-3.105 1.157-4.135.635-.944 1.079-2.387 1.316-4.278.197-1.57.81-3.81 1.362-4.977.878-1.859 1.029-2.833 1.22-7.868.166-4.4.362-5.907.837-6.432.917-1.013.93-23.016.015-24.027-.45-.497-.688-2.248-.93-6.832-.262-4.963-.489-6.514-1.168-7.963-.464-.99-1.027-3.038-1.252-4.552-.254-1.71-.777-3.3-1.383-4.2-.712-1.057-1.029-2.18-1.174-4.16-.144-1.971-.466-3.119-1.178-4.2-.585-.888-1.083-2.375-1.233-3.688-.189-1.644-.503-2.417-1.24-3.06-.787-.684-1.038-1.377-1.232-3.4-.411-4.295-.621-5.156-1.456-5.991-.459-.459-.946-1.689-1.13-2.856-.214-1.349-.623-2.291-1.199-2.757-.482-.39-1.088-1.565-1.348-2.612-.334-1.347-.759-2.046-1.455-2.392-.541-.269-1.121-.861-1.289-1.316-.169-.455-.761-1.001-1.317-1.212-.604-.229-1.011-.698-1.011-1.163 0-.429-.425-1.288-.944-1.91a16 16 0 0 1-1.621-2.452c-.372-.726-.944-1.423-1.271-1.548s-.855-.852-1.174-1.616c-.318-.763-.942-1.482-1.385-1.598-.446-.116-.805-.545-.805-.961 0-.412-.527-1.22-1.172-1.794-.784-.699-1.26-1.592-1.44-2.703-.299-1.853-2.635-4.659-3.879-4.659-.411 0-.896-.44-1.112-1.007-.21-.554-.836-1.18-1.39-1.39-.554-.211-1.007-.666-1.007-1.012 0-.345-.511-.921-1.135-1.28-.625-.358-1.3-1.025-1.5-1.481-.201-.457-.738-.994-1.195-1.195-.456-.2-1.123-.875-1.481-1.5-.359-.624-.935-1.135-1.28-1.135-.346 0-.801-.453-1.012-1.007s-.836-1.18-1.39-1.39c-.554-.211-1.007-.666-1.007-1.012 0-.345-.531-.933-1.181-1.306-.649-.373-1.285-1.092-1.412-1.598-.127-.507-.54-1.031-.919-1.166-.378-.135-1.048-.672-1.488-1.194-.578-.686-1.374-1.016-2.867-1.19-1.567-.182-2.114-.423-2.264-.994-.108-.415-.821-1.015-1.584-1.333s-1.491-.847-1.616-1.174-.822-.899-1.548-1.271a16 16 0 0 1-2.452-1.621c-.622-.519-1.456-.944-1.855-.944s-1.942-1.17-3.429-2.6c-1.546-1.486-3.058-2.6-3.53-2.6-.454 0-1.192-.459-1.64-1.021-.485-.608-1.494-1.173-2.494-1.397-.924-.207-2.109-.807-2.635-1.333-.716-.716-1.599-1.028-3.521-1.244-1.73-.194-2.855-.555-3.457-1.109-.924-.85-3.456-1.431-6.417-1.472-1.142-.016-2.231-.37-3.287-1.069-1.182-.782-2.263-1.095-4.292-1.243-1.962-.144-3.105-.463-4.133-1.155-.962-.647-2.401-1.081-4.45-1.341-1.806-.229-3.631-.739-4.52-1.264-1.275-.752-2.401-.93-7.724-1.22-4.581-.25-6.406-.498-6.89-.936-.995-.901-23.133-.887-24.035.015m26.222 1.417c2.43.235 5.318.67 6.418.966s3.8.849 6 1.227 4.63 1.002 5.4 1.384 2.917.999 4.771 1.371c1.855.373 3.891.946 4.526 1.274s2.641.838 4.459 1.132 4.102.894 5.075 1.332 2.579.924 3.569 1.079c1.673.262 6.494 2.258 8.8 3.644.55.33 1.72.933 2.6 1.339s2.503 1.632 3.606 2.725c1.104 1.093 2.724 2.378 3.6 2.857a54 54 0 0 1 3.241 1.956c.905.597 2.435 1.603 3.4 2.235.964.633 2.113 1.47 2.553 1.862s1.464.892 2.276 1.112c2.154.583 3.446 1.693 13.248 11.383 4.882 4.826 9.63 9.518 10.552 10.427 1.075 1.06 1.825 2.244 2.092 3.304.228.908.714 1.899 1.078 2.201s1.087 1.183 1.605 1.956 1.655 2.396 2.527 3.606 1.935 2.83 2.362 3.6c.426.77 2.144 2.93 3.817 4.8 1.672 1.87 3.24 4.03 3.484 4.8s.866 2.059 1.383 2.865c.518.806 1.297 2.786 1.733 4.4 1.985 7.359 2.771 9.833 3.54 11.135.455.77.952 2.21 1.105 3.2s.618 2.584 1.034 3.543 1.05 3.19 1.409 4.959c.358 1.768 1.006 3.817 1.44 4.552.434.736.951 2.632 1.15 4.215s.713 4.42 1.143 6.305c1.666 7.304 2.155 28.927.873 38.626-.583 4.408-2.662 13.878-3.338 15.2-.338.66-.908 2.666-1.267 4.457s-.993 4.041-1.41 5-.881 2.514-1.034 3.457c-.152.943-.699 2.216-1.215 2.829-.612.727-1.103 2.079-1.411 3.886-.26 1.524-.723 3.384-1.03 4.134-.307.749-.827 2.524-1.156 3.945-.33 1.42-.926 3.056-1.325 3.637-.399.58-.946 1.61-1.216 2.288s-1.447 2.212-2.615 3.409-2.516 2.892-2.993 3.767c-.945 1.731-2.218 3.711-4.531 7.044l-2.185 3.147c-.381.55-1.196 1.591-1.809 2.314-.614.723-1.116 1.543-1.116 1.822 0 1.841-21.228 23.045-23.086 23.06-.267.002-1.077.506-1.8 1.12-.723.613-1.764 1.428-2.314 1.809l-3.147 2.185c-3.333 2.313-5.313 3.586-7.044 4.531-.875.477-2.57 1.824-3.767 2.993s-2.731 2.345-3.409 2.615-1.708.817-2.288 1.216c-.581.399-2.217.995-3.637 1.325-1.421.329-3.196.849-3.945 1.156-.75.307-2.61.77-4.134 1.03-1.807.308-3.159.799-3.886 1.411-.613.516-1.886 1.063-2.829 1.215s-2.498.618-3.457 1.034-3.209 1.051-5 1.41-3.797.929-4.457 1.267c-1.322.676-10.792 2.755-15.2 3.338-9.699 1.282-31.322.793-38.626-.873-1.885-.43-4.722-.944-6.305-1.143s-3.479-.716-4.215-1.15-2.784-1.082-4.552-1.44c-1.769-.359-4-.992-4.959-1.409-.959-.416-2.553-.881-3.543-1.034s-2.43-.65-3.2-1.105c-1.302-.769-3.776-1.555-11.135-3.54-1.614-.436-3.594-1.215-4.4-1.733-.806-.517-2.095-1.14-2.865-1.383s-2.93-1.812-4.8-3.484c-1.87-1.673-4.03-3.391-4.8-3.817s-2.39-1.49-3.6-2.362a164 164 0 0 0-3.606-2.527c-.773-.518-1.653-1.24-1.956-1.605-.302-.364-1.293-.85-2.201-1.078-1.06-.267-2.244-1.017-3.304-2.092-.909-.922-5.601-5.67-10.427-10.552-9.69-9.802-10.8-11.094-11.383-13.248-.22-.812-.72-1.836-1.112-2.276s-1.229-1.589-1.862-2.553c-.632-.965-1.638-2.495-2.235-3.4a54 54 0 0 1-1.956-3.241c-.479-.876-1.764-2.496-2.857-3.6-1.093-1.103-2.32-2.726-2.725-3.606s-1.009-2.05-1.339-2.6c-1.386-2.306-3.382-7.127-3.644-8.8-.155-.99-.641-2.596-1.079-3.569s-1.038-3.257-1.332-5.075-.804-3.825-1.132-4.459c-.328-.635-.901-2.671-1.274-4.526-.372-1.854-.989-4.001-1.371-4.771s-1.005-3.2-1.384-5.4c-.378-2.2-.931-4.9-1.227-6-1.915-7.108-1.898-33.8.026-41.4.863-3.412 1.38-6.314 1.38-7.752 0-.722.439-2.18.976-3.24s1.269-3.386 1.627-5.168.913-3.645 1.234-4.141.852-2.821 1.182-5.167c.352-2.511.906-4.773 1.346-5.499.411-.678.952-2.21 1.202-3.403s.782-2.724 1.182-3.4c.4-.677.969-1.86 1.266-2.63.296-.77.935-2.03 1.42-2.8s1.081-2.03 1.324-2.8 1.811-2.93 3.483-4.8 3.318-3.94 3.657-4.6.956-1.65 1.371-2.2c2.635-3.495 3.541-4.909 3.774-5.89.738-3.099 3.83-7.292 6.356-8.617 1.379-.723 13.8-13.129 13.8-13.783 0-1.469 5.56-5.564 8.51-6.266.981-.233 2.395-1.139 5.89-3.774.55-.415 1.54-1.032 2.2-1.371s2.73-1.984 4.6-3.657c1.87-1.672 4.03-3.239 4.8-3.483.77-.243 2.03-.839 2.8-1.324s2.03-1.124 2.8-1.42c.77-.297 1.953-.866 2.63-1.266s2.206-.932 3.4-1.182 2.725-.791 3.403-1.202c.726-.44 2.988-.994 5.499-1.346 2.346-.33 4.671-.861 5.167-1.182s2.359-.876 4.141-1.234 4.108-1.09 5.168-1.627 2.482-.976 3.16-.976c1.231-.001 5.235-.719 8.632-1.548 4.797-1.171 25.452-1.669 34.182-.824M114.5 113.082l-.9.174V141.9l1.25.25c.688.137 3.073.251 5.3.252 5.308.003 6.781.422 7.608 2.166 1.031 2.172.974 101.367-.059 103.426-.868 1.73-2.615 2.143-7.907 1.868-2.514-.13-4-.022-4.9.356l-1.292.543v13.977c0 12.376.072 14.004.633 14.219.348.134 16.822.243 36.61.243h35.977l.39-1.026c.694-1.826.505-27.18-.207-27.771-.386-.321-2.256-.524-5.3-.575-7.369-.123-6.903.875-6.903-14.796v-12.13l1.9-1.643c1.045-.904 2.35-2.049 2.9-2.545s2.31-1.958 3.911-3.249 3.169-2.847 3.484-3.456c.868-1.677 4.33-4.409 5.589-4.409 1.45 0 4.797 2.869 5.554 4.762.327.816.889 1.729 1.251 2.029s.913 1.1 1.226 1.777c.313.678 1.298 2.222 2.189 3.432.89 1.21 1.999 2.92 2.464 3.8s1.36 2.226 1.989 2.991c.628.765 1.143 1.592 1.143 1.838s.346.76.768 1.142.985 1.625 1.25 2.762.797 2.427 1.182 2.867c.835.952 2.613 3.626 4 6.012.55.946 1.481 2.501 2.068 3.454 2.758 4.478 1.572 5.475-6.554 5.511-4.704.021-5.119.085-5.524.842-.515.961-.389 27.073.134 27.881.341.527 87.482.779 88.843.257.96-.368.96-27.787.001-28.584-.44-.364-2.115-.534-5.5-.558l-4.868-.034-1.941-1.39c-1.12-.803-2.349-2.152-2.906-3.191-.531-.99-1.59-2.61-2.353-3.6s-1.852-2.61-2.42-3.6c-2.385-4.157-3.229-5.522-4.101-6.63-1.749-2.221-3.008-4.375-3.499-5.987-.27-.89-.917-2.264-1.436-3.055a106 106 0 0 1-3.172-5.148c-.346-.602-1.111-1.667-1.7-2.368-.59-.7-1.072-1.442-1.072-1.649 0-.206-1.485-1.963-3.3-3.904-3.519-3.762-6.35-8.072-7.077-10.773-.244-.909-.614-1.757-.822-1.885s-.75-1.486-1.206-3.017-.994-2.784-1.196-2.784c-.879 0-4.911-4.687-6.196-7.2-.394-.77-1.095-1.872-1.559-2.45a27 27 0 0 1-1.644-2.367c-.44-.724-1.202-1.962-1.693-2.75-.924-1.481-1.199-4.152-.536-5.2.357-.564 1.866-1.428 5.976-3.422 2.884-1.4 5.517-3.687 7.453-6.474.88-1.267 2.494-3.121 3.587-4.12a165 165 0 0 0 3.2-3.003c1.871-1.83 4.613-3.855 6.012-4.439.695-.291 1.49-.8 1.765-1.131.275-.332 1.159-.821 1.965-1.087.806-.265 2.227-1.268 3.16-2.227 2.273-2.339 2.941-2.53 8.857-2.53 3.429 0 5.251-.157 5.574-.48.688-.688.688-27.952 0-28.64-.714-.714-75.734-.695-76.196.02-.523.808-.648 27.32-.134 28.281.414.774.798.819 6.962.819 7.383 0 7.942.202 7.553 2.727-.156 1.016-.591 1.57-1.854 2.361a115 115 0 0 0-2.651 1.711c-.55.372-1.698.929-2.551 1.238-1.139.412-1.936 1.137-3 2.729-2.613 3.912-3.011 4.351-6.719 7.417-2.018 1.669-3.728 3.169-3.8 3.333-.239.547-4.02 3.474-5.534 4.284-3.383 1.811-5.094 3.181-5.938 4.755-.485.905-1.552 2.121-2.37 2.702-.818.582-2.689 2.16-4.158 3.508-6.825 6.264-6.73 6.494-6.73-16.252 0-22.442-.714-20.252 6.665-20.453 2.824-.077 5.36-.324 5.635-.549.707-.578.726-27.925.02-28.631-.464-.464-70.249-.654-72.62-.198m71.9 14.518v14h-5.571c-4.532 0-5.689.117-6.2.629-.767.766-.97 39.187-.215 40.597.773 1.444 5.688.744 6.204-.884.138-.435.682-.987 1.209-1.227s1.064-.772 1.194-1.182c.131-.411.854-1.004 1.608-1.319s1.371-.843 1.371-1.172.495-.835 1.1-1.124c.647-.309 1.155-.914 1.234-1.468.075-.526.479-1.033.916-1.147.43-.113 1.049-.722 1.376-1.354.344-.665.921-1.149 1.369-1.149.425 0 1.146-.399 1.601-.888.455-.488 1.587-1.166 2.515-1.507s1.855-.993 2.057-1.45c.203-.457.878-1.023 1.5-1.258.686-.259 1.132-.722 1.132-1.175 0-.467.462-.921 1.231-1.211.678-.256 1.325-.82 1.438-1.254.114-.434.595-.895 1.069-1.023 1.201-.326 3.798-2.841 4.076-3.947.126-.504.624-1.09 1.106-1.302.481-.212.941-.732 1.021-1.156.244-1.297 3.274-3.829 4.581-3.829.754 0 1.526-.394 2.218-1.133.583-.623 1.552-1.256 2.154-1.406.749-.187 1.179-.618 1.363-1.367.148-.602.537-1.507.864-2.012.552-.853.515-1.001-.53-2.091l-1.124-1.173-7.033-.109-7.034-.109-.112-13c-.061-7.15-.013-13.405.108-13.9l.219-.9h75.195l-.105 13.9-.105 13.9-6.757.2c-6.117.181-6.799.273-7.2.966-.969 1.676-3.313 3.742-4.554 4.014-.719.158-1.8.702-2.402 1.208s-1.767 1.202-2.59 1.546c-.824.344-1.497.887-1.497 1.206 0 .32-.526.765-1.168.989-.76.265-1.214.731-1.3 1.335-.079.553-.455.984-.932 1.068-1.106.193-6.029 5.331-6.356 6.633-.15.6-.682 1.221-1.221 1.426-.525.2-1.066.716-1.203 1.146-.137.431-.698.896-1.248 1.034s-1.202.696-1.45 1.24-.737.99-1.086.991c-1.485.005-3.606.872-3.825 1.563-.129.407-.729.839-1.333.959-3.179.636-4.683 4.937-2.278 6.513.55.36 1 .988 1 1.395s.514 1.331 1.141 2.054c.628.723 1.314 1.854 1.526 2.514s.766 1.373 1.232 1.583c.519.235 1.012 1.011 1.269 2 .412 1.578 2.409 3.978 5.706 6.855 1.204 1.051 1.461 1.582 1.701 3.504.188 1.5.606 2.65 1.239 3.401.525.624 1.119 1.865 1.319 2.758.201.893.762 2.045 1.247 2.561s1.13 1.526 1.433 2.244.836 1.415 1.184 1.548c.348.134.894.748 1.213 1.366s.954 1.241 1.409 1.386.999.714 1.209 1.267.724 1.094 1.143 1.204.879.667 1.022 1.239.789 1.642 1.434 2.376c.645.735 1.173 1.617 1.173 1.961s.502 1.103 1.116 1.687c.614.583 1.341 1.822 1.614 2.753.274.932.828 1.87 1.231 2.086.441.236.838 1.054.998 2.057.325 2.032.896 3.164 1.594 3.164.289 0 .808.72 1.154 1.6s.89 1.6 1.209 1.6c.348 0 .785.733 1.093 1.83.303 1.086.894 2.081 1.452 2.446.516.339.939.949.939 1.356s.519 1.331 1.153 2.054 1.435 1.989 1.78 2.814c.344.825.891 1.5 1.215 1.5.331 0 .706.535.858 1.226.162.74.648 1.398 1.226 1.661.526.24 1.233.859 1.572 1.375.598.913.771.938 6.405.938H294v26.8h-43.757c-39.532 0-43.781-.061-44-.633-.134-.348-.243-6.267-.243-13.153v-12.521l.9-.241c.495-.133 3.496-.244 6.669-.247 6.759-.006 7.231-.209 7.231-3.107 0-1.459-.215-1.978-1.2-2.898-.66-.617-1.2-1.402-1.2-1.747 0-.344-.514-1.216-1.141-1.939-.628-.723-1.314-1.854-1.526-2.514s-.778-1.378-1.259-1.595-.874-.706-.874-1.086-.511-1.282-1.135-2.005c-.748-.865-1.296-2.131-1.605-3.702-.323-1.645-.768-2.642-1.43-3.2-.529-.447-1.082-1.227-1.23-1.735s-.678-1.078-1.178-1.269c-.661-.251-.98-.783-1.166-1.948-.159-.992-.616-1.885-1.202-2.346-.521-.41-1.085-1.188-1.254-1.729s-.821-1.573-1.448-2.292-1.25-1.745-1.384-2.279c-.134-.535-.677-1.256-1.206-1.602s-.962-1.002-.962-1.456c0-.547-.399-.976-1.183-1.272-.674-.255-1.233-.788-1.3-1.242-.268-1.819-5.972-1.838-6.799-.022-.242.531-.775 1.071-1.185 1.201s-1.004.854-1.319 1.608-.856 1.371-1.202 1.371-.828.436-1.071.969-.875 1.078-1.405 1.211-1.16.673-1.4 1.2-.861 1.065-1.38 1.195c-.564.142-1.044.637-1.193 1.231-.137.547-.509.994-.826.994-3.767 0-4.137 1.509-4.137 16.891 0 16.615-.68 15.109 6.823 15.109h5.577v26.8h-70.385l-.219-.9c-.121-.495-.169-6.48-.108-13.3l.112-12.4 6-.2 6-.2.678-1.358c.373-.747.868-1.548 1.1-1.78.292-.292.422-16.035.422-50.955v-50.534l-1.003-1.98c-1.199-2.365-1.207-2.368-7.997-2.495l-5.2-.098-.105-13.9-.105-13.9h70.81z"/></g></svg>